<svg width="20" height="20" viewBox="0 0 20 20" fill="none" xmlns="http://www.w3.org/2000/svg">
<mask id="mask0_2952_143" style="mask-type:alpha" maskUnits="userSpaceOnUse" x="0" y="0" width="20" height="20">
<rect width="20" height="20" fill="#D9D9D9"/>
</mask>
<g mask="url(#mask0_2952_143)">
<path d="M1.66667 4.79159C1.37153 4.79159 1.12413 4.69176 0.924479 4.49211C0.724826 4.29245 0.625 4.04506 0.625 3.74992C0.625 3.45478 0.724826 3.20738 0.924479 3.00773C1.12413 2.80808 1.37153 2.70825 1.66667 2.70825H18.3333C18.6285 2.70825 18.8759 2.80808 19.0755 3.00773C19.2752 3.20738 19.375 3.45478 19.375 3.74992C19.375 4.04506 19.2752 4.29245 19.0755 4.49211C18.8759 4.69176 18.6285 4.79159 18.3333 4.79159H1.66667ZM1.66667 17.2916C1.37153 17.2916 1.12413 17.1918 0.924479 16.9921C0.724826 16.7925 0.625 16.5451 0.625 16.2499C0.625 15.9548 0.724826 15.7074 0.924479 15.5077C1.12413 15.3081 1.37153 15.2083 1.66667 15.2083H18.3333C18.6285 15.2083 18.8759 15.3081 19.0755 15.5077C19.2752 15.7074 19.375 15.9548 19.375 16.2499C19.375 16.5451 19.2752 16.7925 19.0755 16.9921C18.8759 17.1918 18.6285 17.2916 18.3333 17.2916H1.66667ZM1.66667 11.0416C1.37153 11.0416 1.12413 10.9418 0.924479 10.7421C0.724826 10.5425 0.625 10.2951 0.625 9.99992C0.625 9.70478 0.724826 9.45738 0.924479 9.25773C1.12413 9.05808 1.37153 8.95825 1.66667 8.95825H18.3333C18.6285 8.95825 18.8759 9.05808 19.0755 9.25773C19.2752 9.45738 19.375 9.70478 19.375 9.99992C19.375 10.2951 19.2752 10.5425 19.0755 10.7421C18.8759 10.9418 18.6285 11.0416 18.3333 11.0416H1.66667Z" fill="#ECEFF4"/>
</g>
</svg>
