<svg width="22" height="22" viewBox="0 0 22 22" fill="none" xmlns="http://www.w3.org/2000/svg">
<path d="M3.00098 0.000976562V0H5.77734C7.76606 -1.26176e-05 8.7779 1.17158 9.48633 2.03027C10.2428 2.94718 10.5766 3.33301 11.2783 3.33301H19L19.1553 3.33789C19.9275 3.38059 20.6393 3.73996 21.1572 4.31543C21.7066 4.92584 22 5.7331 22 6.55566V18.7773C22 19.5999 21.7066 20.4081 21.1572 21.0186C20.6048 21.6322 19.8315 22 19 22H3C2.16849 22 1.39525 21.6322 0.842773 21.0186C0.293406 20.4081 0 19.5999 0 18.7773V3.22266C0 2.40009 0.293406 1.59185 0.842773 0.981445C1.39135 0.372133 2.15761 0.00612264 2.98242 0.000976562C2.98799 0.000795242 2.99167 2.77838e-06 2.99219 0H3L3.00098 0.000976562ZM3 2C2.77082 2 2.52675 2.1007 2.3291 2.32031C2.12845 2.54339 2 2.86661 2 3.22266V18.7773C2 19.1335 2.12832 19.4576 2.3291 19.6807C2.52671 19.9001 2.77092 20 3 20H19C19.2291 20 19.4733 19.9001 19.6709 19.6807C19.8717 19.4576 20 19.1335 20 18.7773V6.55566C20 6.19953 19.8716 5.87641 19.6709 5.65332C19.4981 5.46128 19.2898 5.36016 19.0869 5.33789L19 5.33301H11.2783C9.48005 5.33301 8.56289 4.0525 7.94434 3.30273C7.27788 2.49491 6.78912 2.00015 5.77832 2H3.00098C3.0296 1.99997 3.05792 1.99848 3.08594 1.99609V1.99512C3.04518 1.99795 3.00194 1.99999 3 2ZM10.5 7C11.0523 7 11.5 7.44772 11.5 8V11.5H15C15.5523 11.5 16 11.9477 16 12.5C16 13.0523 15.5523 13.5 15 13.5H11.5V17C11.5 17.5523 11.0523 18 10.5 18C9.94772 18 9.5 17.5523 9.5 17V13.5H6C5.44772 13.5 5 13.0523 5 12.5C5 11.9477 5.44772 11.5 6 11.5H9.5V8C9.5 7.44772 9.94771 7 10.5 7Z" fill="#ECEFF4"/>
</svg>
