<svg width="22" height="22" viewBox="0 0 22 22" fill="none" xmlns="http://www.w3.org/2000/svg">
<path d="M21 18.7778C21 19.3672 20.7893 19.9324 20.4142 20.3491C20.0391 20.7659 19.5304 21 19 21H3C2.46957 21 1.96086 20.7659 1.58579 20.3491C1.21071 19.9324 1 19.3672 1 18.7778V3.22224C1 2.63287 1.21071 2.06764 1.58579 1.65089C1.96086 1.23415 2.46957 1.00002 3 1.00002C3 1.00002 2.77783 1.00004 5.77783 1.00002C8.77783 1 8.77783 4.33335 11.2778 4.33335C13.7778 4.33335 19 4.33335 19 4.33335C19.5304 4.33335 20.0391 4.56748 20.4142 4.98423C20.7893 5.40097 21 5.96621 21 6.55558V18.7778Z" stroke="#ECEFF4" stroke-width="2" stroke-linecap="round" stroke-linejoin="round"/>
</svg>
