<svg width="30" height="30" viewBox="0 0 30 30" fill="none" xmlns="http://www.w3.org/2000/svg">
<path d="M4.875 0C4.57664 3.22502e-05 4.29051 0.12818 4.07954 0.356257C3.86857 0.584335 3.75003 0.893666 3.75 1.21622V2.43243H1.125C0.826641 2.43246 0.54051 2.56061 0.329538 2.78869C0.118566 3.01677 2.98315e-05 3.3261 0 3.64865V28.7838C2.98315e-05 29.1063 0.118566 29.4157 0.329538 29.6437C0.54051 29.8718 0.826641 30 1.125 30H28.875C29.1734 30 29.4595 29.8718 29.6705 29.6437C29.8814 29.4157 30 29.1063 30 28.7838V3.64865C30 3.3261 29.8814 3.01677 29.6705 2.78869C29.4595 2.56061 29.1734 2.43246 28.875 2.43243H26.25V1.21622C26.25 0.893666 26.1314 0.584335 25.9205 0.356257C25.7095 0.12818 25.4234 3.22502e-05 25.125 0H19.5C17.6158 0 16.0222 1.08075 15 2.63038C13.9778 1.08075 12.3842 0 10.5 0H4.875ZM6 2.43243H10.5C12.3776 2.43243 13.875 4.05122 13.875 6.08108V24.7535C12.9315 23.9839 11.7668 23.5135 10.5 23.5135H6V3.84818C6.01984 3.71762 6.01984 3.58443 6 3.45386V2.43243ZM19.5 2.43243H24V3.44911C23.9802 3.57968 23.9802 3.71287 24 3.84343V23.5135H19.5C18.2332 23.5135 17.0685 23.9839 16.125 24.7535V6.08108C16.125 4.05122 17.6224 2.43243 19.5 2.43243ZM2.25 4.86486H3.75V24.7297C3.75003 25.0523 3.86857 25.3616 4.07954 25.5897C4.29051 25.8178 4.57664 25.9459 4.875 25.9459H10.5C11.6779 25.9459 12.7026 26.5918 13.3052 27.5676H2.25V4.86486ZM26.25 4.86486H27.75V27.5676H16.6948C17.2974 26.5918 18.3221 25.9459 19.5 25.9459H25.125C25.4234 25.9459 25.7095 25.8178 25.9205 25.5897C26.1314 25.3616 26.25 25.0523 26.25 24.7297V4.86486ZM8.625 5.67568C8.47592 5.6734 8.32792 5.70317 8.18958 5.76327C8.05124 5.82337 7.92533 5.91259 7.81916 6.02575C7.71299 6.13891 7.62869 6.27376 7.57115 6.42245C7.51361 6.57114 7.48398 6.73071 7.48398 6.89189C7.48398 7.05307 7.51361 7.21264 7.57115 7.36133C7.62869 7.51003 7.71299 7.64487 7.81916 7.75803C7.92533 7.87119 8.05124 7.96042 8.18958 8.02052C8.32792 8.08061 8.47592 8.11039 8.625 8.10811H10.875C11.0241 8.11039 11.1721 8.08061 11.3104 8.02052C11.4488 7.96042 11.5747 7.87119 11.6808 7.75803C11.787 7.64487 11.8713 7.51003 11.9289 7.36133C11.9864 7.21264 12.016 7.05307 12.016 6.89189C12.016 6.73071 11.9864 6.57114 11.9289 6.42245C11.8713 6.27376 11.787 6.13891 11.6808 6.02575C11.5747 5.91259 11.4488 5.82337 11.3104 5.76327C11.1721 5.70317 11.0241 5.6734 10.875 5.67568H8.625ZM19.125 5.67568C18.9759 5.6734 18.8279 5.70317 18.6896 5.76327C18.5512 5.82337 18.4253 5.91259 18.3192 6.02575C18.213 6.13891 18.1287 6.27376 18.0711 6.42245C18.0136 6.57114 17.984 6.73071 17.984 6.89189C17.984 7.05307 18.0136 7.21264 18.0711 7.36133C18.1287 7.51003 18.213 7.64487 18.3192 7.75803C18.4253 7.87119 18.5512 7.96042 18.6896 8.02052C18.8279 8.08061 18.9759 8.11039 19.125 8.10811H21.375C21.5241 8.11039 21.6721 8.08061 21.8104 8.02052C21.9488 7.96042 22.0747 7.87119 22.1808 7.75803C22.287 7.64487 22.3713 7.51003 22.4288 7.36133C22.4864 7.21264 22.516 7.05307 22.516 6.89189C22.516 6.73071 22.4864 6.57114 22.4288 6.42245C22.3713 6.27376 22.287 6.13891 22.1808 6.02575C22.0747 5.91259 21.9488 5.82337 21.8104 5.76327C21.6721 5.70317 21.5241 5.6734 21.375 5.67568H19.125ZM8.625 9.72973C8.47592 9.72745 8.32792 9.75723 8.18958 9.81732C8.05124 9.87742 7.92533 9.96664 7.81916 10.0798C7.71299 10.193 7.62869 10.3278 7.57115 10.4765C7.51361 10.6252 7.48398 10.7848 7.48398 10.9459C7.48398 11.1071 7.51361 11.2667 7.57115 11.4154C7.62869 11.5641 7.71299 11.6989 7.81916 11.8121C7.92533 11.9252 8.05124 12.0145 8.18958 12.0746C8.32792 12.1347 8.47592 12.1644 8.625 12.1622H10.875C11.0241 12.1644 11.1721 12.1347 11.3104 12.0746C11.4488 12.0145 11.5747 11.9252 11.6808 11.8121C11.787 11.6989 11.8713 11.5641 11.9289 11.4154C11.9864 11.2667 12.016 11.1071 12.016 10.9459C12.016 10.7848 11.9864 10.6252 11.9289 10.4765C11.8713 10.3278 11.787 10.193 11.6808 10.0798C11.5747 9.96664 11.4488 9.87742 11.3104 9.81732C11.1721 9.75723 11.0241 9.72745 10.875 9.72973H8.625ZM19.125 9.72973C18.9759 9.72745 18.8279 9.75723 18.6896 9.81732C18.5512 9.87742 18.4253 9.96664 18.3192 10.0798C18.213 10.193 18.1287 10.3278 18.0711 10.4765C18.0136 10.6252 17.984 10.7848 17.984 10.9459C17.984 11.1071 18.0136 11.2667 18.0711 11.4154C18.1287 11.5641 18.213 11.6989 18.3192 11.8121C18.4253 11.9252 18.5512 12.0145 18.6896 12.0746C18.8279 12.1347 18.9759 12.1644 19.125 12.1622H21.375C21.5241 12.1644 21.6721 12.1347 21.8104 12.0746C21.9488 12.0145 22.0747 11.9252 22.1808 11.8121C22.287 11.6989 22.3713 11.5641 22.4288 11.4154C22.4864 11.2667 22.516 11.1071 22.516 10.9459C22.516 10.7848 22.4864 10.6252 22.4288 10.4765C22.3713 10.3278 22.287 10.193 22.1808 10.0798C22.0747 9.96664 21.9488 9.87742 21.8104 9.81732C21.6721 9.75723 21.5241 9.72745 21.375 9.72973H19.125ZM8.625 13.7838C8.47592 13.7815 8.32792 13.8113 8.18958 13.8714C8.05124 13.9315 7.92533 14.0207 7.81916 14.1339C7.71299 14.247 7.62869 14.3819 7.57115 14.5306C7.51361 14.6792 7.48398 14.8388 7.48398 15C7.48398 15.1612 7.51361 15.3208 7.57115 15.4694C7.62869 15.6181 7.71299 15.753 7.81916 15.8661C7.92533 15.9793 8.05124 16.0685 8.18958 16.1286C8.32792 16.1887 8.47592 16.2185 8.625 16.2162H10.875C11.0241 16.2185 11.1721 16.1887 11.3104 16.1286C11.4488 16.0685 11.5747 15.9793 11.6808 15.8661C11.787 15.753 11.8713 15.6181 11.9289 15.4694C11.9864 15.3208 12.016 15.1612 12.016 15C12.016 14.8388 11.9864 14.6792 11.9289 14.5306C11.8713 14.3819 11.787 14.247 11.6808 14.1339C11.5747 14.0207 11.4488 13.9315 11.3104 13.8714C11.1721 13.8113 11.0241 13.7815 10.875 13.7838H8.625ZM19.125 13.7838C18.9759 13.7815 18.8279 13.8113 18.6896 13.8714C18.5512 13.9315 18.4253 14.0207 18.3192 14.1339C18.213 14.247 18.1287 14.3819 18.0711 14.5306C18.0136 14.6792 17.984 14.8388 17.984 15C17.984 15.1612 18.0136 15.3208 18.0711 15.4694C18.1287 15.6181 18.213 15.753 18.3192 15.8661C18.4253 15.9793 18.5512 16.0685 18.6896 16.1286C18.8279 16.1887 18.9759 16.2185 19.125 16.2162H21.375C21.5241 16.2185 21.6721 16.1887 21.8104 16.1286C21.9488 16.0685 22.0747 15.9793 22.1808 15.8661C22.287 15.753 22.3713 15.6181 22.4288 15.4694C22.4864 15.3208 22.516 15.1612 22.516 15C22.516 14.8388 22.4864 14.6792 22.4288 14.5306C22.3713 14.3819 22.287 14.247 22.1808 14.1339C22.0747 14.0207 21.9488 13.9315 21.8104 13.8714C21.6721 13.8113 21.5241 13.7815 21.375 13.7838H19.125ZM8.625 17.8378C8.47592 17.8356 8.32792 17.8653 8.18958 17.9254C8.05124 17.9855 7.92533 18.0748 7.81916 18.1879C7.71299 18.3011 7.62869 18.4359 7.57115 18.5846C7.51361 18.7333 7.48398 18.8929 7.48398 19.0541C7.48398 19.2152 7.51361 19.3748 7.57115 19.5235C7.62869 19.6722 7.71299 19.807 7.81916 19.9202C7.92533 20.0334 8.05124 20.1226 8.18958 20.1827C8.32792 20.2428 8.47592 20.2726 8.625 20.2703H10.875C11.0241 20.2726 11.1721 20.2428 11.3104 20.1827C11.4488 20.1226 11.5747 20.0334 11.6808 19.9202C11.787 19.807 11.8713 19.6722 11.9289 19.5235C11.9864 19.3748 12.016 19.2152 12.016 19.0541C12.016 18.8929 11.9864 18.7333 11.9289 18.5846C11.8713 18.4359 11.787 18.3011 11.6808 18.1879C11.5747 18.0748 11.4488 17.9855 11.3104 17.9254C11.1721 17.8653 11.0241 17.8356 10.875 17.8378H8.625ZM19.125 17.8378C18.9759 17.8356 18.8279 17.8653 18.6896 17.9254C18.5512 17.9855 18.4253 18.0748 18.3192 18.1879C18.213 18.3011 18.1287 18.4359 18.0711 18.5846C18.0136 18.7333 17.984 18.8929 17.984 19.0541C17.984 19.2152 18.0136 19.3748 18.0711 19.5235C18.1287 19.6722 18.213 19.807 18.3192 19.9202C18.4253 20.0334 18.5512 20.1226 18.6896 20.1827C18.8279 20.2428 18.9759 20.2726 19.125 20.2703H21.375C21.5241 20.2726 21.6721 20.2428 21.8104 20.1827C21.9488 20.1226 22.0747 20.0334 22.1808 19.9202C22.287 19.807 22.3713 19.6722 22.4288 19.5235C22.4864 19.3748 22.516 19.2152 22.516 19.0541C22.516 18.8929 22.4864 18.7333 22.4288 18.5846C22.3713 18.4359 22.287 18.3011 22.1808 18.1879C22.0747 18.0748 21.9488 17.9855 21.8104 17.9254C21.6721 17.8653 21.5241 17.8356 21.375 17.8378H19.125Z" fill="#ECEFF4"/>
</svg>
